<svg xmlns="http://www.w3.org/2000/svg" width="24" height="24"
    viewBox="0 0 24 24" class="lock-icon" style="display: none;">
    <g id="Group_914" data-name="Group 914"
        transform="translate(-352.398 -108.617)">
        <rect id="Rectangle_14" data-name="Rectangle 14" width="24"
            height="24" transform="translate(352.399 108.617)" fill="none">
        </rect>
        <path id="Path_25" data-name="Path 25"
            d="M370.02,119.04h-8.77v-2.38a3.265,3.265,0,0,1,2.987-3.316,3.145,3.145,0,0,1,3.232,2.438.873.873,0,0,0,.842.7h0a.854.854,0,0,0,.853-1,4.867,4.867,0,0,0-5.241-3.835,5.016,5.016,0,0,0-4.4,5.06v2.337h-.75a1.04,1.04,0,0,0-1.05,1v8.45a1.027,1.027,0,0,0,1,1.05h11.3a1.014,1.014,0,0,0,1.05-1v-8.45A1.07,1.07,0,0,0,370.02,119.04Zm-4.5,7.5h-2.17l.37-1.87a1.338,1.338,0,0,1-.6-1.13,1.35,1.35,0,0,1,2.7,0,1.315,1.315,0,0,1-.6,1.13Z"
            fill="#2db84c"></path>
    </g>
</svg>